<svg width="314" height="80" viewBox="0 0 314 80" fill="none" xmlns="http://www.w3.org/2000/svg">
<g clip-path="url(#clip0_3_11)">
<path d="M100.473 62.6771L104.378 53.6062C108.599 56.7558 114.205 58.3936 119.748 58.3936C123.843 58.3936 126.425 56.8188 126.425 54.4251C126.362 47.7479 101.921 52.9763 101.732 36.2204C101.67 27.7164 109.229 21.1653 119.937 21.1653C126.299 21.1653 132.662 22.7401 137.197 26.3306L133.543 35.5905C129.386 32.9448 124.221 31.055 119.307 31.055C115.969 31.055 113.764 32.6298 113.764 34.6456C113.827 41.1968 138.457 37.6062 138.709 53.6062C138.709 62.2991 131.339 68.4093 120.756 68.4093C113.008 68.4093 105.89 66.5826 100.473 62.6771ZM250.331 50.3306C248.378 53.7322 244.725 56.0629 240.504 56.0629C234.268 56.0629 229.228 51.0235 229.228 44.7873C229.228 38.5511 234.268 33.5117 240.504 33.5117C244.725 33.5117 248.378 35.8424 250.331 39.244L261.102 33.2597C257.071 26.0786 249.323 21.1653 240.504 21.1653C227.465 21.1653 216.882 31.7479 216.882 44.7873C216.882 57.8267 227.465 68.4093 240.504 68.4093C249.386 68.4093 257.071 63.559 261.102 56.3149L250.331 50.3306ZM144.126 1.57471H157.606V67.5275H144.126V1.57471ZM266.394 1.57471V67.5275H279.874V47.7479L295.874 67.5275H313.134L292.787 44.0314L311.622 22.1101H295.118L279.874 40.3149V1.57471H266.394ZM197.669 50.4566C195.717 53.6692 191.685 56.0629 187.15 56.0629C180.914 56.0629 175.874 51.0235 175.874 44.7873C175.874 38.5511 180.914 33.5117 187.15 33.5117C191.685 33.5117 195.717 36.0314 197.669 39.307V50.4566ZM197.669 22.1101V27.4645C195.465 23.7479 189.984 21.1653 184.252 21.1653C172.41 21.1653 163.087 31.6219 163.087 44.7243C163.087 57.8267 172.41 68.4093 184.252 68.4093C189.984 68.4093 195.465 65.8267 197.669 62.1101V67.4645H211.15V22.1101H197.669Z" fill="black"/>
<path d="M17.1342 50.3936C17.1342 54.992 13.4176 58.7085 8.81923 58.7085C4.2208 58.7085 0.504272 54.992 0.504272 50.3936C0.504272 45.7951 4.2208 42.0786 8.81923 42.0786H17.1342V50.3936ZM21.2917 50.3936C21.2917 45.7951 25.0082 42.0786 29.6066 42.0786C34.205 42.0786 37.9216 45.7951 37.9216 50.3936V71.181C37.9216 75.7794 34.205 79.4959 29.6066 79.4959C25.0082 79.4959 21.2917 75.7794 21.2917 71.181V50.3936Z" fill="#E01E5A"/>
<path d="M29.6064 17.0078C25.008 17.0078 21.2914 13.2913 21.2914 8.69283C21.2914 4.0944 25.008 0.377869 29.6064 0.377869C34.2048 0.377869 37.9213 4.0944 37.9213 8.69283V17.0078H29.6064ZM29.6064 21.2283C34.2048 21.2283 37.9213 24.9448 37.9213 29.5432C37.9213 34.1417 34.2048 37.8582 29.6064 37.8582H8.75599C4.15757 37.8582 0.44104 34.1417 0.44104 29.5432C0.44104 24.9448 4.15757 21.2283 8.75599 21.2283H29.6064Z" fill="#36C5F0"/>
<path d="M62.9297 29.5432C62.9297 24.9447 66.6462 21.2282 71.2447 21.2282C75.8431 21.2282 79.5596 24.9447 79.5596 29.5432C79.5596 34.1416 75.8431 37.8581 71.2447 37.8581H62.9297V29.5432ZM58.7722 29.5432C58.7722 34.1416 55.0557 37.8581 50.4573 37.8581C45.8589 37.8581 42.1423 34.1416 42.1423 29.5432V8.69277C42.1423 4.09434 45.8589 0.377808 50.4573 0.377808C55.0557 0.377808 58.7722 4.09434 58.7722 8.69277V29.5432Z" fill="#2EB67D"/>
<path d="M50.4573 62.866C55.0557 62.866 58.7722 66.5825 58.7722 71.181C58.7722 75.7794 55.0557 79.4959 50.4573 79.4959C45.8589 79.4959 42.1423 75.7794 42.1423 71.181V62.866H50.4573ZM50.4573 58.7085C45.8589 58.7085 42.1423 54.992 42.1423 50.3936C42.1423 45.7951 45.8589 42.0786 50.4573 42.0786H71.3077C75.9061 42.0786 79.6226 45.7951 79.6226 50.3936C79.6226 54.992 75.9061 58.7085 71.3077 58.7085H50.4573Z" fill="#ECB22E"/>
</g>
<defs>
<clipPath id="clip0_3_11">
<rect width="313.701" height="80" fill="white"/>
</clipPath>
</defs>
</svg>
